<?xml version="1.0" standalone="no"?>
<!DOCTYPE svg PUBLIC "-//W3C//DTD SVG 20010904//EN"
 "http://www.w3.org/TR/2001/REC-SVG-20010904/DTD/svg10.dtd">
<svg version="1.0" xmlns="http://www.w3.org/2000/svg"
 width="2048.000000pt" height="2048.000000pt" viewBox="0 0 2048.000000 2048.000000"
 preserveAspectRatio="xMidYMid meet">

<g transform="translate(0.000000,2048.000000) scale(0.100000,-0.100000)"
fill="#000000" stroke="none">
<path d="M9874 19093 c-6 -2 -26 -43 -43 -91 -18 -48 -45 -114 -61 -147 -46
-96 -77 -177 -84 -216 -4 -21 -15 -48 -25 -60 -10 -13 -24 -42 -31 -64 -7 -22
-20 -53 -30 -70 -10 -16 -21 -46 -25 -65 -4 -19 -18 -56 -31 -82 -13 -26 -24
-53 -24 -60 0 -7 -13 -40 -29 -73 -16 -33 -34 -76 -41 -95 -7 -19 -23 -63 -35
-97 -12 -34 -30 -73 -39 -88 -10 -14 -24 -45 -31 -68 -33 -97 -64 -180 -83
-220 -33 -67 -70 -159 -78 -192 -3 -16 -15 -44 -25 -61 -11 -18 -26 -51 -33
-75 -8 -24 -31 -82 -51 -129 -33 -74 -71 -171 -92 -235 -4 -11 -22 -49 -40
-85 -19 -36 -38 -85 -44 -109 -5 -24 -30 -85 -55 -135 -25 -50 -52 -111 -59
-136 -17 -59 -57 -159 -75 -190 -15 -26 -49 -108 -80 -195 -9 -27 -40 -97 -68
-155 -27 -58 -53 -120 -57 -139 -4 -18 -18 -55 -31 -81 -13 -26 -24 -51 -24
-56 0 -4 -9 -17 -19 -28 -11 -12 -26 -46 -34 -76 -21 -76 -66 -181 -87 -205
-10 -11 -24 -40 -30 -65 -7 -25 -15 -49 -20 -55 -4 -5 -11 -21 -15 -35 -4 -14
-29 -71 -57 -128 -27 -56 -56 -126 -65 -155 -8 -29 -23 -63 -33 -77 -9 -14
-22 -40 -28 -58 -6 -18 -20 -45 -32 -59 -11 -14 -20 -32 -20 -41 0 -15 -39
-105 -115 -267 -23 -49 -48 -107 -55 -129 -7 -21 -23 -54 -36 -74 -13 -19 -24
-39 -24 -45 0 -11 -9 -30 -101 -222 -77 -161 -85 -208 -43 -262 16 -21 103
-114 194 -207 150 -152 165 -171 163 -201 -4 -61 -199 -487 -228 -499 -7 -2
-27 6 -45 19 -17 13 -46 26 -63 29 -18 3 -64 31 -102 61 -38 30 -72 55 -76 55
-4 0 -34 25 -67 55 -32 30 -71 59 -86 65 -42 16 -82 -12 -101 -71 -9 -25 -49
-112 -89 -192 -41 -80 -77 -156 -81 -169 -4 -13 -31 -66 -60 -118 -29 -52 -55
-107 -59 -121 -3 -15 -21 -53 -39 -85 -52 -91 -64 -113 -99 -194 -17 -41 -40
-87 -49 -101 -10 -14 -36 -68 -59 -120 -23 -52 -46 -99 -51 -105 -13 -15 -84
-163 -94 -194 -4 -14 -18 -38 -30 -55 -12 -16 -50 -86 -83 -155 -34 -69 -70
-141 -81 -160 -11 -19 -41 -78 -66 -130 -24 -52 -59 -120 -76 -150 -17 -30
-37 -73 -45 -95 -8 -21 -20 -46 -28 -55 -14 -16 -63 -108 -96 -180 -11 -25
-47 -94 -80 -155 -33 -60 -67 -126 -75 -145 -9 -19 -21 -44 -27 -55 -11 -19
-33 -58 -72 -130 -9 -16 -23 -46 -31 -65 -9 -19 -29 -57 -45 -85 -15 -27 -50
-93 -76 -145 -26 -52 -68 -133 -94 -180 -26 -47 -52 -100 -58 -118 -6 -19 -31
-64 -56 -100 -24 -37 -47 -78 -51 -92 -14 -45 -57 -124 -86 -158 -16 -18 -29
-40 -29 -50 0 -25 -56 -140 -85 -174 -14 -16 -25 -35 -25 -41 0 -7 -14 -39
-30 -72 -17 -33 -30 -65 -30 -71 0 -6 -8 -18 -17 -25 -9 -8 -38 -59 -65 -114
-27 -55 -64 -125 -83 -155 -19 -30 -38 -64 -42 -75 -9 -28 -83 -167 -98 -185
-6 -8 -29 -53 -51 -100 -21 -47 -46 -96 -57 -109 -10 -14 -36 -63 -58 -110
-23 -47 -47 -93 -55 -101 -7 -9 -36 -61 -64 -115 -28 -55 -75 -145 -104 -200
-30 -55 -78 -145 -106 -200 -29 -55 -57 -107 -64 -115 -7 -8 -19 -31 -26 -50
-7 -19 -19 -42 -25 -50 -11 -14 -121 -214 -194 -355 -101 -192 -131 -247 -150
-271 -11 -14 -25 -41 -30 -59 -5 -18 -31 -68 -59 -111 -27 -44 -53 -89 -57
-102 -3 -12 -22 -48 -41 -80 -18 -31 -55 -100 -81 -152 -27 -52 -57 -109 -69
-125 -11 -17 -38 -66 -59 -110 -22 -44 -47 -91 -56 -105 -9 -14 -45 -79 -79
-145 -34 -66 -70 -129 -80 -140 -9 -11 -34 -58 -55 -105 -22 -47 -47 -94 -56
-105 -10 -11 -37 -60 -60 -110 -23 -49 -50 -99 -60 -110 -10 -11 -36 -56 -59
-100 -22 -44 -56 -107 -75 -140 -19 -33 -43 -80 -55 -105 -12 -25 -27 -52 -35
-60 -7 -8 -16 -26 -20 -40 -4 -14 -24 -52 -44 -85 -39 -62 -118 -206 -207
-373 -28 -54 -67 -124 -87 -157 -19 -33 -56 -101 -81 -152 -25 -50 -50 -94
-56 -98 -5 -3 -30 -48 -55 -99 -24 -51 -53 -100 -64 -110 -10 -10 -22 -28 -25
-41 -5 -20 -38 -82 -107 -203 -8 -15 -33 -60 -55 -101 -21 -40 -51 -94 -66
-120 -15 -25 -36 -64 -46 -86 -11 -22 -38 -69 -61 -105 -22 -36 -58 -102 -80
-148 -22 -46 -52 -97 -66 -113 -14 -17 -25 -35 -25 -40 0 -19 -70 -156 -88
-172 -10 -10 -36 -54 -58 -100 -21 -45 -49 -98 -62 -117 -13 -19 -39 -66 -59
-105 -19 -38 -49 -95 -67 -126 -17 -31 -55 -100 -85 -155 -30 -54 -70 -124
-89 -154 -19 -30 -43 -73 -53 -95 -10 -22 -33 -65 -50 -95 -18 -30 -44 -77
-59 -105 -84 -155 -120 -218 -129 -229 -5 -6 -33 -56 -61 -110 -28 -54 -59
-107 -70 -118 -10 -11 -22 -33 -25 -49 -4 -16 -23 -55 -43 -88 -20 -33 -59
-102 -87 -153 -30 -56 -59 -97 -72 -103 -22 -9 -23 -15 -23 -117 0 -60 4 -108
8 -108 4 0 32 16 62 35 30 19 59 35 66 35 6 0 30 14 53 31 23 16 79 49 124 73
45 23 100 53 122 66 98 57 125 69 198 89 43 12 95 33 115 46 20 14 43 25 51
25 19 0 119 58 159 92 18 15 39 28 47 28 20 0 154 66 180 88 11 10 54 33 95
52 41 19 109 55 151 82 42 26 83 48 91 48 8 0 35 13 59 30 24 16 49 30 55 30
6 0 28 14 49 30 21 17 44 30 51 30 8 0 49 19 91 42 126 67 304 159 513 263
107 54 207 106 221 116 14 10 38 21 55 25 31 7 124 56 162 85 13 10 37 21 55
25 34 7 134 55 178 85 24 17 82 42 174 76 22 8 50 24 62 35 12 12 44 29 70 38
120 44 144 55 246 106 60 30 116 54 125 54 9 0 40 14 67 30 28 16 56 30 63 30
7 0 25 9 41 21 15 11 47 25 71 30 24 6 89 32 144 59 97 47 141 65 235 96 24 7
59 24 79 36 36 23 122 56 216 83 26 7 65 25 85 39 20 14 44 26 52 26 7 0 38
11 67 25 30 14 66 25 80 25 15 1 52 14 82 30 30 17 62 30 70 30 8 0 35 11 60
24 25 13 64 26 88 30 24 4 66 18 92 31 27 14 60 25 72 25 13 0 41 11 64 24 23
13 59 27 80 31 21 4 64 17 94 30 30 12 75 25 99 29 23 4 59 15 80 26 20 10 63
25 96 33 33 8 80 22 105 30 25 9 74 22 110 31 36 9 83 20 105 26 80 19 182 42
270 61 110 23 255 61 338 88 266 87 257 86 422 61 180 -26 207 -26 242 5 l28
24 -410 1 c-225 0 -416 4 -423 9 -9 5 -12 25 -10 62 l3 54 60 7 c75 10 103 30
137 98 25 51 299 1049 314 1146 8 54 -15 79 -83 89 -70 9 -75 14 -71 76 l3 54
631 3 c542 2 633 0 643 -12 10 -12 7 -42 -13 -142 -14 -70 -26 -133 -26 -141
0 -10 26 -13 119 -13 l120 0 -20 57 c-28 82 -43 101 -91 114 -24 6 -46 16 -50
23 -13 19 -9 93 6 105 9 8 108 11 342 9 l329 -3 0 -60 c0 -59 0 -60 -30 -63
-112 -9 -121 -20 -98 -115 16 -64 18 -67 47 -68 29 0 29 -1 9 -9 -13 -5 -23
-13 -23 -17 0 -9 90 -307 94 -310 1 -2 23 25 48 60 l45 62 -8 76 c-8 86 -20
116 -52 129 -15 6 19 9 100 9 l121 1 20 33 c11 17 23 48 27 67 9 52 -10 72
-76 78 -30 2 -60 9 -66 14 -17 14 -16 93 1 107 9 8 92 11 282 9 l269 -3 3 -57
3 -56 -55 -16 c-63 -19 -109 -55 -161 -127 l-35 -49 392 2 392 3 134 165 c73
91 139 168 145 172 17 11 89 10 106 -1 12 -8 13 -39 8 -175 l-6 -166 288 0
288 0 7 37 c16 103 2 128 -82 139 -57 7 -72 22 -72 69 0 14 5 35 10 46 10 18
24 19 289 19 211 0 281 -3 288 -12 10 -13 21 -94 68 -493 14 -115 33 -275 43
-355 l17 -145 284 440 c157 242 302 468 324 502 l39 63 287 -2 286 -3 3 -48
c2 -27 -2 -54 -7 -61 -6 -7 -33 -16 -61 -19 -77 -9 -108 -30 -136 -94 -26 -59
-314 -1122 -314 -1159 0 -39 32 -65 95 -78 l60 -12 3 -48 c2 -26 -2 -54 -9
-62 -9 -12 -74 -14 -383 -14 -276 0 -375 3 -384 12 -16 16 -15 93 1 105 6 6
33 13 60 16 99 13 124 42 170 197 36 117 189 711 185 715 -2 2 -61 -87 -133
-198 -274 -428 -495 -775 -495 -780 0 -2 19 -7 42 -11 23 -4 67 -21 97 -38 48
-28 64 -32 141 -33 48 -2 95 -7 106 -13 11 -6 53 -15 95 -21 41 -6 99 -21 129
-34 30 -13 77 -27 103 -31 27 -4 77 -18 113 -32 35 -13 75 -24 88 -24 13 0 51
-9 84 -19 34 -11 90 -23 124 -26 67 -7 191 -43 273 -80 28 -13 72 -25 99 -29
53 -7 211 -58 266 -87 19 -10 62 -25 95 -33 115 -28 195 -55 224 -75 16 -12
34 -21 40 -21 23 0 229 -73 285 -101 33 -16 65 -29 73 -29 8 0 31 -9 53 -20
22 -11 48 -20 58 -20 11 0 44 -14 75 -30 31 -17 62 -30 69 -30 6 0 30 -9 52
-19 53 -25 161 -69 211 -87 22 -8 58 -23 80 -33 116 -55 172 -80 195 -87 24
-6 94 -37 205 -89 28 -13 84 -38 125 -55 73 -31 84 -36 125 -58 60 -32 172
-82 186 -82 8 0 54 -22 102 -50 47 -27 99 -52 114 -56 33 -8 161 -70 183 -89
8 -7 54 -29 103 -48 48 -20 108 -49 134 -66 26 -17 52 -31 59 -31 8 0 44 -15
81 -34 75 -38 381 -194 428 -219 17 -8 68 -34 115 -57 47 -24 90 -47 96 -51 6
-5 57 -33 113 -62 56 -28 150 -77 209 -108 59 -31 148 -78 197 -104 50 -26
115 -61 146 -79 196 -108 352 -194 404 -222 68 -36 362 -200 415 -232 19 -11
78 -44 130 -72 52 -29 102 -58 110 -66 9 -7 34 -21 55 -30 22 -9 70 -36 106
-60 69 -45 105 -55 115 -29 7 17 -34 109 -76 171 -17 25 -39 78 -50 117 -33
124 -97 278 -121 293 -6 3 -32 50 -58 103 -26 53 -62 121 -80 151 -19 30 -44
78 -58 105 -13 28 -37 73 -53 100 -16 28 -38 68 -49 91 -11 22 -29 51 -39 65
-11 13 -24 40 -31 59 -6 19 -27 60 -46 90 -19 30 -55 98 -80 150 -26 52 -58
107 -71 123 -13 16 -24 36 -24 44 0 9 -10 32 -22 51 -27 44 -51 87 -118 217
-28 55 -64 120 -80 145 -17 25 -37 61 -46 80 -57 122 -78 161 -100 181 -13 12
-24 29 -24 37 0 27 -53 137 -81 167 -15 17 -43 66 -62 110 -19 45 -45 97 -58
117 -13 19 -41 63 -61 96 -28 45 -54 71 -107 107 -39 26 -71 51 -71 55 0 4
-26 27 -57 51 -32 24 -62 49 -68 56 -5 7 -37 32 -71 56 -33 23 -115 87 -181
142 -155 129 -330 271 -417 337 -37 29 -99 78 -136 108 -37 30 -92 71 -120 90
-29 19 -74 53 -99 76 -25 23 -77 61 -116 85 -38 24 -74 49 -78 56 -4 7 -33 29
-65 49 -79 51 -82 54 -143 100 -30 22 -67 48 -84 58 -16 9 -50 32 -75 51 -25
20 -61 42 -80 51 -34 16 -73 44 -115 83 -11 10 -50 34 -86 54 -36 20 -89 52
-118 71 -29 20 -81 49 -116 66 -36 17 -67 35 -70 40 -10 17 -111 80 -128 80
-8 0 -28 11 -44 24 -26 22 -45 33 -157 93 -69 37 -121 78 -124 97 -4 18 2 18
94 12 71 -6 110 -14 143 -31 25 -12 61 -26 80 -30 19 -4 57 -18 85 -31 28 -13
62 -24 76 -24 30 0 202 -55 251 -80 19 -10 64 -23 100 -29 127 -22 240 -54
276 -78 19 -13 56 -28 82 -33 62 -12 157 -51 205 -83 21 -15 45 -27 52 -27 21
0 153 -56 172 -73 10 -9 36 -24 57 -32 58 -24 148 -65 165 -76 8 -5 35 -20 60
-32 25 -12 57 -30 71 -40 19 -13 109 -46 127 -47 14 -1 -14 88 -62 190 -14 30
-26 68 -26 83 0 30 -53 161 -75 187 -7 8 -38 62 -67 120 -30 58 -67 125 -81
150 -15 25 -47 87 -72 138 -24 51 -56 107 -70 123 -14 17 -25 36 -25 42 0 7
-11 35 -25 62 -13 28 -25 55 -25 61 0 5 -13 23 -30 39 -16 16 -30 33 -30 38 0
17 -63 152 -80 172 -20 23 -90 153 -90 169 -1 6 -21 43 -45 81 -25 39 -48 77
-51 85 -24 61 -81 170 -100 193 -13 16 -24 33 -24 39 0 16 -68 150 -88 172
-10 12 -35 59 -57 106 -21 47 -44 92 -51 100 -7 9 -34 59 -59 113 -25 53 -50
99 -54 102 -5 2 -32 51 -60 107 -29 57 -67 130 -85 163 -18 33 -57 105 -85
160 -29 55 -68 127 -86 160 -18 33 -36 67 -40 75 -3 8 -15 31 -26 50 -10 19
-38 73 -60 120 -23 47 -49 94 -59 105 -9 11 -34 58 -56 105 -21 47 -51 100
-66 118 -15 18 -28 38 -28 45 0 7 -11 35 -25 62 -13 28 -25 55 -25 61 0 6 -13
23 -30 37 -16 15 -30 33 -30 41 0 7 -11 33 -24 58 -13 25 -27 58 -30 75 -4 17
-16 39 -27 49 -21 19 -71 117 -89 176 -6 21 -16 40 -21 44 -16 10 -78 113 -85
141 -8 32 -59 129 -84 158 -10 11 -21 31 -25 45 -10 37 -75 162 -95 185 -10
11 -21 31 -25 45 -4 14 -16 39 -26 56 -11 17 -19 39 -19 48 0 9 -15 33 -34 53
-18 21 -36 52 -40 68 -4 17 -14 37 -21 45 -7 8 -18 34 -24 58 -7 25 -22 48
-36 58 -13 8 -27 30 -30 47 -4 18 -15 41 -25 52 -10 11 -23 38 -29 61 -6 22
-20 49 -31 59 -11 10 -20 25 -20 34 0 9 -7 27 -15 41 -8 14 -25 46 -38 72 -13
26 -29 53 -35 61 -7 8 -19 33 -27 58 -9 24 -24 53 -34 64 -17 18 -81 153 -81
171 0 4 -10 21 -23 38 -38 51 -74 119 -81 153 -4 18 -16 44 -28 58 -22 29 -72
127 -83 165 -5 14 -18 39 -30 55 -26 36 -71 129 -80 167 -4 14 -20 38 -36 52
-16 14 -29 33 -29 42 0 28 -62 159 -85 179 -13 11 -26 34 -30 50 -10 46 -62
149 -85 170 -11 10 -20 26 -20 35 0 9 -11 37 -23 61 -13 24 -29 61 -36 81 -7
20 -19 42 -26 48 -8 7 -19 29 -25 50 -5 20 -21 49 -35 64 -14 15 -25 36 -25
47 0 31 -67 163 -89 176 -11 7 -23 29 -27 50 -8 49 -58 154 -83 177 -11 10
-23 32 -27 50 -3 17 -14 45 -24 61 -10 17 -21 44 -24 61 -4 18 -16 40 -26 49
-11 10 -24 34 -31 54 -6 20 -19 45 -29 56 -10 11 -21 36 -25 55 -4 19 -20 56
-36 81 -16 25 -29 49 -29 53 0 5 -11 21 -25 38 -14 16 -25 39 -25 51 0 12 -7
35 -15 51 -8 15 -15 32 -15 37 0 5 28 23 63 40 109 55 252 168 234 185 -4 4
-33 -5 -64 -19 -32 -14 -76 -30 -98 -36 -59 -16 -171 -14 -205 4 -35 18 -70
81 -73 132 l-2 37 120 27 c66 15 140 35 165 45 57 22 102 53 95 65 -4 5 -81 9
-173 9 -142 1 -292 16 -306 31 -42 45 -76 96 -76 114 0 13 -9 39 -19 57 -31
53 -31 80 2 96 35 17 32 20 -29 35 -42 11 -49 16 -57 46 -5 19 -17 45 -27 58
-10 12 -21 38 -24 57 -4 19 -13 40 -22 47 -23 19 -35 46 -28 63 3 9 29 33 58
53 178 129 386 313 386 342 0 16 -12 14 -72 -14 -82 -37 -199 -63 -346 -77
-157 -14 -177 -8 -202 59 -8 22 -23 49 -32 60 -9 10 -21 37 -28 61 -6 24 -20
58 -31 75 -10 18 -19 46 -19 64 0 27 7 37 48 64 97 67 208 188 184 203 -4 2
-25 -14 -47 -35 -39 -39 -152 -102 -206 -115 -23 -5 -31 0 -58 39 -17 25 -31
52 -31 59 0 8 -27 68 -60 134 -33 65 -60 126 -60 135 0 9 -11 32 -24 51 -13
19 -26 50 -30 70 -3 19 -17 45 -31 58 -14 13 -25 34 -25 48 0 29 -61 169 -95
220 -14 20 -25 45 -25 55 0 10 -8 34 -19 55 -10 20 -21 53 -25 73 -3 20 -17
46 -31 59 -14 13 -25 29 -25 35 0 7 -11 33 -25 60 -14 26 -28 67 -32 92 -3 26
-17 58 -34 80 -16 20 -29 44 -29 53 0 9 -11 34 -25 54 -14 20 -25 47 -25 59 0
12 -11 44 -24 72 -13 27 -40 84 -60 126 -20 41 -36 84 -36 95 0 11 -7 29 -15
42 -9 12 -22 42 -29 66 -8 25 -22 57 -33 73 -11 15 -23 41 -27 57 -4 17 -16
41 -26 56 -10 14 -21 44 -25 65 -4 22 -20 60 -36 84 -16 25 -29 54 -29 66 0
12 -9 34 -20 48 -11 14 -24 46 -29 70 -4 25 -18 57 -29 72 -12 15 -27 46 -33
69 -6 22 -18 49 -26 58 -9 10 -19 37 -24 62 -4 24 -19 56 -32 70 -15 16 -28
45 -32 73 -4 26 -13 56 -21 68 -8 11 -19 38 -25 60 -6 22 -21 51 -34 65 -13
14 -25 44 -29 70 -4 25 -15 59 -25 76 -10 17 -22 45 -26 62 -3 17 -15 42 -26
56 -11 14 -28 49 -38 78 -46 128 -68 185 -83 208 -9 14 -19 36 -23 50 -4 14
-27 50 -51 81 -49 64 -131 229 -168 339 -26 78 -97 220 -118 237 -7 6 -18 8
-24 6z m-1694 -6044 c0 -57 -139 -358 -193 -416 -28 -31 -41 -29 -98 13 -54
39 -57 48 -32 84 35 52 228 297 261 332 40 42 62 37 62 -13z m-85 -456 c-9
-50 -23 -67 -41 -52 -19 15 -18 26 7 60 29 41 43 37 34 -8z m4545 -24 c0 -6
15 -7 35 -3 31 5 35 4 35 -14 0 -29 -10 -52 -24 -52 -17 0 -133 56 -140 68 -4
7 11 11 44 10 27 0 50 -4 50 -9z m205 -289 c3 -11 11 -20 16 -20 5 0 9 -5 9
-11 0 -17 53 -119 62 -119 4 0 8 -8 8 -18 0 -23 19 -42 41 -42 16 0 34 -26 31
-42 -2 -9 69 -147 98 -193 33 -52 60 -104 60 -117 0 -40 26 -92 65 -134 45
-48 120 -173 132 -222 3 -15 9 -29 12 -32 3 -3 14 -30 25 -60 10 -30 24 -62
31 -70 8 -8 35 -58 61 -110 26 -52 50 -97 53 -100 20 -17 73 -104 89 -148 11
-28 29 -63 41 -78 11 -15 21 -30 21 -35 0 -5 11 -33 25 -63 14 -30 25 -61 25
-68 0 -8 19 -38 41 -68 23 -30 55 -84 71 -120 43 -93 68 -142 88 -165 28 -33
61 -97 81 -153 10 -29 38 -83 62 -120 39 -60 99 -163 149 -255 9 -18 17 -40
18 -49 0 -9 14 -46 30 -81 48 -104 42 -117 -39 -79 -110 52 -156 88 -221 171
-36 46 -95 113 -132 151 -37 37 -70 80 -74 96 -4 16 -22 58 -40 93 -19 35 -34
69 -34 75 0 6 -27 45 -60 86 -35 44 -69 100 -82 134 -12 33 -44 87 -70 119
-26 33 -48 64 -48 69 0 5 -25 50 -55 100 -30 50 -55 95 -55 101 0 5 -21 37
-46 71 -26 33 -53 77 -62 96 -8 19 -34 77 -58 128 -24 51 -44 99 -44 106 0 6
-16 36 -35 66 -19 30 -35 60 -35 66 0 6 -15 31 -33 55 -31 41 -77 129 -77 146
0 5 -7 22 -16 38 -23 42 -54 126 -54 146 0 9 -7 19 -15 23 -8 3 -15 13 -15 22
0 9 -8 28 -17 42 -36 54 -44 68 -58 99 -8 18 -15 43 -15 57 0 13 -6 26 -12 28
-7 3 -13 22 -13 45 0 29 -3 39 -12 36 -7 -3 -13 2 -13 10 0 8 7 17 15 21 10 3
15 19 15 46 0 39 -1 40 -33 40 -18 0 -38 -5 -45 -12 -13 -13 -42 5 -42 27 0 8
-6 16 -12 19 -10 5 -10 7 0 12 17 8 15 27 -2 21 -9 -4 -15 3 -19 21 -2 15 -7
34 -11 44 -6 13 8 21 86 46 114 37 135 38 143 12z m-4655 -57 c0 -10 -7 -66
-16 -125 -16 -104 -17 -107 -60 -149 l-44 -43 6 49 c10 73 52 214 75 252 23
36 39 43 39 16z m-140 -214 l0 -130 -54 -67 c-98 -123 -168 -248 -205 -366
-22 -73 -26 -100 -12 -92 4 3 11 25 14 48 15 106 109 277 235 428 84 101 109
126 118 118 6 -6 -32 -186 -53 -246 -18 -55 -12 -63 16 -20 30 48 26 27 -10
-45 -40 -79 -98 -166 -162 -242 -79 -94 -85 -105 -17 -35 100 105 196 260 239
386 27 82 149 312 155 294 2 -8 10 -107 16 -220 19 -335 35 -470 80 -645 58
-231 87 -312 105 -294 1 2 -4 49 -12 104 -17 112 -21 628 -5 725 l9 55 16 -37
c15 -33 15 -46 2 -155 -22 -171 -31 -453 -16 -536 7 -43 45 -145 102 -280 93
-216 94 -219 119 -432 17 -144 38 -200 119 -319 77 -114 76 -110 106 -326 35
-250 102 -514 155 -603 34 -58 34 -38 0 32 -35 70 -90 263 -114 401 -27 150
-47 301 -44 319 4 19 101 -141 157 -261 22 -46 40 -74 40 -62 2 38 -138 301
-244 461 -60 89 -112 179 -120 206 -8 27 -22 113 -31 190 -18 162 -28 196
-131 436 -41 96 -78 197 -84 224 -18 97 -4 505 20 570 13 35 80 -218 121 -456
22 -126 26 -134 50 -112 18 16 19 14 25 -42 15 -132 37 -179 149 -319 169
-211 257 -291 426 -387 25 -14 95 -71 155 -128 205 -190 324 -288 363 -296 21
-5 112 -8 203 -8 l166 0 56 43 c86 64 241 217 312 305 62 77 75 100 129 218
30 65 173 269 222 317 119 116 188 228 242 397 l39 118 20 -34 c93 -156 95
-167 62 -275 -39 -125 -94 -219 -242 -414 -141 -184 -433 -517 -653 -746 -88
-91 -187 -131 -383 -154 -150 -19 -233 3 -364 93 -112 77 -207 166 -312 292
-113 135 -232 248 -387 366 -121 92 -148 109 -148 90 0 -5 44 -44 98 -84 184
-140 312 -259 411 -382 126 -158 289 -298 421 -362 68 -34 85 -38 174 -41 156
-7 335 32 426 92 71 47 484 500 663 728 51 64 95 117 98 117 11 2 -59 -256
-116 -424 -29 -88 -88 -241 -130 -340 -113 -264 -198 -499 -170 -473 3 3 42
93 85 200 42 106 96 236 120 288 93 210 162 416 225 673 31 123 41 148 90 226
63 99 122 227 131 284 4 20 9 37 13 37 3 0 20 -24 36 -53 30 -51 61 -69 59
-34 -1 10 -5 93 -9 185 l-7 167 122 -127 c166 -174 175 -172 76 22 -65 129
-133 296 -124 305 3 3 89 -48 191 -114 198 -128 267 -167 267 -152 0 5 -40 55
-90 112 -49 57 -90 107 -90 112 0 4 -17 34 -38 65 -33 49 -62 104 -62 117 0 2
42 -18 93 -45 113 -60 242 -110 367 -143 98 -26 200 -43 200 -33 0 3 -26 24
-57 47 -137 100 -194 154 -278 264 -51 67 -85 121 -83 131 4 25 37 32 154 33
l101 1 79 -51 c122 -79 399 -280 494 -356 47 -38 91 -81 98 -95 25 -52 -12
-335 -68 -518 -16 -52 -45 -153 -65 -224 -45 -159 -129 -398 -195 -553 -28
-63 -50 -122 -50 -129 0 -92 177 353 253 636 114 421 130 500 143 683 l6 89
25 -24 c47 -42 100 -135 131 -230 51 -154 128 -461 208 -823 19 -87 45 -179
57 -203 26 -54 141 -191 188 -228 10 -7 22 -68 38 -190 29 -232 54 -345 90
-409 54 -95 191 -466 191 -516 0 -17 -65 -9 -100 12 -19 12 -79 55 -133 97
-54 41 -100 72 -103 69 -10 -9 247 -195 278 -201 17 -3 47 -6 68 -6 34 0 45
-8 127 -93 115 -121 123 -138 122 -263 -1 -87 2 -106 25 -158 39 -87 70 -123
136 -156 64 -32 65 -35 73 -130 7 -74 27 -129 73 -196 l39 -56 0 -127 c0 -115
-2 -131 -26 -181 -14 -30 -43 -75 -64 -100 -72 -85 -402 -606 -475 -749 -49
-97 -159 -175 -292 -206 -65 -15 -288 -21 -288 -7 1 4 7 48 16 97 8 50 19 180
25 290 l11 200 77 95 c152 187 249 316 279 370 40 71 76 182 97 295 22 116 33
497 16 548 -18 54 -44 72 -101 69 l-48 -2 -61 73 c-33 39 -61 77 -61 83 0 30
140 94 205 94 19 0 35 5 35 10 0 29 -154 -14 -218 -60 l-41 -30 -69 83 c-112
134 -212 261 -212 269 0 15 91 8 147 -12 83 -29 156 -77 229 -149 35 -35 64
-59 64 -52 0 20 -112 122 -176 161 -77 46 -177 79 -240 80 l-52 0 -47 69 -47
69 17 76 c9 42 36 124 60 182 89 210 177 537 174 640 -1 33 -3 30 -10 -19 -17
-119 -133 -497 -195 -638 -19 -43 -39 -101 -46 -130 -6 -30 -15 -58 -19 -63
-4 -4 -30 27 -58 69 l-52 77 20 82 c12 44 30 137 41 206 18 115 20 168 19 655
-1 292 -4 573 -8 625 -4 53 -9 -183 -13 -540 l-6 -635 -31 -179 c-17 -99 -34
-183 -38 -187 -5 -4 -44 21 -88 57 -44 35 -116 82 -160 104 l-80 40 -132 0
-131 0 55 128 c182 421 339 850 451 1235 38 129 7 65 -47 -96 -142 -429 -448
-1214 -465 -1196 -10 10 -76 224 -100 322 -35 143 -138 660 -171 857 -30 179
-34 195 -45 184 -9 -9 66 -432 135 -769 49 -238 107 -473 140 -563 15 -41 24
-80 21 -88 -7 -20 -75 -18 -97 2 -41 37 -130 309 -184 566 -13 60 -26 112 -29
115 -56 56 89 -519 165 -653 11 -20 18 -39 15 -41 -2 -3 -213 -9 -467 -14
-493 -9 -528 -13 -627 -63 -49 -25 -125 -100 -167 -166 -40 -62 -254 -260
-282 -260 -5 0 -15 36 -22 80 -16 98 -35 108 -24 13 13 -116 5 -192 -27 -253
-28 -54 -33 -116 -16 -195 8 -38 17 -101 21 -140 8 -94 44 -333 56 -370 5 -16
25 -47 44 -68 27 -30 34 -44 29 -63 -3 -13 -1 -30 4 -37 8 -9 4 -32 -14 -81
-32 -90 -58 -186 -84 -321 l-22 -110 -64 -68 c-76 -80 -131 -160 -140 -203 -4
-21 5 -63 31 -140 60 -176 58 -308 -4 -368 -72 -69 -196 -91 -480 -84 -208 5
-210 5 -260 34 -28 16 -83 56 -122 89 l-72 60 110 6 c124 8 193 20 308 56 127
40 292 124 280 143 -3 5 -49 -13 -103 -40 -119 -60 -220 -94 -336 -115 -89
-15 -258 -19 -287 -7 -27 12 -264 293 -303 359 -4 7 -11 59 -16 115 -12 134
-38 217 -99 305 -27 39 -81 135 -121 214 -69 136 -72 144 -68 200 4 50 10 65
50 116 62 80 78 114 78 170 0 26 9 125 20 219 18 160 21 175 52 224 32 51 33
58 33 152 l0 99 -36 32 c-19 18 -105 86 -189 152 -85 66 -186 152 -225 191
-96 98 -127 112 -267 120 -62 4 -122 10 -134 15 -26 9 -92 121 -178 299 -123
257 -214 530 -255 765 -10 61 -19 97 -20 80 -4 -110 95 -498 175 -690 21 -48
68 -149 105 -224 37 -75 65 -138 64 -140 -9 -8 -357 352 -431 444 -99 125
-266 375 -346 517 -33 60 -63 107 -65 104 -3 -2 23 -58 56 -123 171 -335 438
-674 731 -926 58 -50 107 -94 108 -99 10 -23 -121 -5 -292 41 -319 86 -534
104 -671 56 l-70 -24 -23 27 c-28 32 -285 365 -367 475 -54 73 -75 91 -75 66
0 -11 260 -358 378 -504 l64 -80 -49 -45 c-61 -57 -202 -213 -276 -307 -31
-39 -90 -98 -130 -131 -41 -33 -89 -78 -107 -99 l-34 -38 -90 0 -90 0 -27 -40
c-15 -22 -40 -71 -55 -110 -15 -38 -37 -88 -50 -110 -12 -22 -39 -78 -59 -125
-37 -86 -84 -170 -97 -170 -27 0 -12 336 22 485 24 100 65 391 79 550 6 66 15
171 21 234 7 81 15 123 29 145 10 17 50 83 88 146 38 63 74 114 79 113 16 -3
35 -86 29 -126 -3 -25 -2 -36 5 -32 16 10 12 89 -7 142 -21 58 -24 245 -4 281
7 13 50 66 97 118 71 81 84 100 84 130 0 19 4 65 10 102 5 37 17 119 26 182
60 425 160 743 284 905 52 68 84 89 182 123 168 59 649 268 873 379 44 22 83
38 88 36 4 -2 7 -63 7 -134z m1145 -53 c12 -80 74 -146 135 -146 84 0 170 61
170 120 0 17 3 30 8 28 4 -2 19 -9 33 -17 14 -7 77 -80 140 -162 l114 -149 9
37 c5 21 10 39 11 41 9 11 62 -31 105 -84 55 -68 65 -76 55 -44 -4 13 -2 20 7
20 16 0 196 -141 286 -224 34 -32 62 -52 62 -45 0 8 -16 50 -35 94 -19 44 -35
81 -35 82 0 2 12 3 28 3 32 0 113 -37 161 -74 19 -14 37 -24 39 -21 3 3 -11
40 -31 82 -20 43 -39 92 -43 110 l-6 32 61 -19 c81 -26 150 -34 208 -26 43 7
55 15 115 78 40 42 76 92 90 124 13 30 27 54 31 54 5 0 29 -20 55 -44 l46 -44
-12 -90 c-30 -227 -130 -498 -272 -742 -88 -150 -273 -374 -441 -534 -150
-142 -162 -149 -273 -154 -132 -6 -157 4 -262 100 -49 46 -159 142 -244 214
-189 160 -370 359 -432 474 -47 88 -113 269 -106 291 2 6 23 -10 47 -36 45
-49 48 -39 10 37 -29 58 -23 63 30 25 55 -40 111 -70 117 -64 2 2 -17 40 -44
83 -63 106 -80 162 -97 324 -17 159 -19 220 -5 220 5 0 23 -30 40 -67 68 -148
156 -223 265 -223 99 0 167 39 215 123 16 28 27 53 25 56 -3 2 -29 -19 -59
-47 -64 -60 -89 -72 -157 -72 -85 0 -178 58 -221 136 -46 86 -48 151 -5 172
43 21 55 15 62 -32z m1614 -26 c47 -35 47 -43 5 -117 -86 -149 -264 -190 -379
-85 -60 54 -105 113 -105 135 0 21 55 86 64 76 2 -2 11 -29 20 -60 33 -117
142 -161 242 -100 38 23 74 94 74 144 0 47 21 49 79 7z m241 -664 c-15 -128
-32 -206 -73 -326 l-32 -95 -6 135 -5 135 47 105 c25 58 53 123 60 144 20 56
23 22 9 -98z m-4694 -1290 c7 -28 -13 -66 -123 -232 l-73 -111 -8 -149 -8
-149 -183 -340 c-256 -473 -261 -482 -308 -535 -42 -46 -95 -80 -127 -80 -20
0 -21 37 -2 59 8 9 31 54 52 101 21 47 56 114 77 148 22 35 53 95 68 134 16
38 37 82 47 96 11 15 39 68 65 117 67 132 175 341 256 495 39 74 87 169 106
210 20 41 43 89 52 105 57 104 88 155 95 155 4 0 10 -11 14 -24z m1090 -552
c19 -9 64 -44 102 -79 37 -34 77 -67 88 -73 29 -15 302 -42 425 -42 96 0 99 1
99 23 0 45 14 52 115 55 130 5 140 2 171 -61 27 -53 239 -294 341 -387 31 -28
94 -81 141 -117 l85 -67 -7 -80 c-4 -45 -11 -110 -16 -146 -4 -36 -14 -123
-20 -195 -7 -71 -15 -134 -19 -138 -11 -11 -38 2 -46 21 -4 9 -6 53 -6 98 1
66 -5 100 -35 195 -20 62 -44 130 -54 149 -33 64 -90 119 -161 156 -47 25 -88
57 -125 97 -57 64 -76 70 -48 15 32 -63 56 -89 105 -113 77 -40 113 -78 182
-198 109 -188 120 -233 92 -382 -9 -51 -19 -169 -22 -272 -5 -146 -8 -183 -19
-183 -22 0 -54 38 -54 63 0 12 -5 29 -10 37 -8 12 -10 11 -10 -7 0 -36 19 -77
48 -100 22 -19 24 -23 9 -23 -83 0 -115 106 -124 404 l-6 189 -51 56 c-28 31
-71 80 -95 109 -25 29 -48 49 -52 45 -4 -5 -3 -30 2 -58 9 -49 31 -98 119
-259 34 -62 44 -94 51 -155 5 -42 15 -118 22 -168 13 -92 7 -119 -14 -65 -6
15 -22 72 -36 127 -15 58 -37 117 -53 140 -15 22 -59 103 -98 180 -118 231
-264 399 -407 469 -77 37 -153 50 -255 41 -129 -12 -237 -10 -315 5 -113 21
-272 77 -373 131 -80 43 -99 50 -129 44 -45 -8 -112 -70 -148 -137 -27 -51
-227 -320 -384 -518 -74 -93 -75 -94 -82 -66 -14 52 -13 290 1 317 7 13 59 94
116 179 71 107 117 166 149 190 55 42 133 124 240 254 80 98 189 207 256 258
69 53 243 76 315 42z m5257 -144 c116 -59 220 -150 289 -254 118 -176 316
-434 521 -679 36 -42 39 -49 25 -60 -9 -6 -46 -58 -82 -114 -37 -57 -70 -103
-75 -103 -5 0 -136 153 -292 340 -155 187 -293 349 -306 360 -71 55 -236 79
-317 45 -63 -26 -165 -43 -366 -59 -235 -20 -323 -32 -372 -53 -35 -15 -40
-15 -88 6 -46 20 -57 21 -138 11 -48 -6 -95 -13 -105 -16 -10 -3 -34 -38 -53
-77 -60 -120 -121 -203 -204 -277 -76 -69 -79 -73 -96 -143 -18 -78 -70 -233
-103 -309 -21 -49 -35 -61 -90 -73 -38 -8 -36 -16 -16 75 3 14 -3 6 -14 -17
-20 -43 -47 -56 -57 -28 -3 8 10 52 29 97 55 128 75 211 87 358 l11 135 53 55
c115 120 183 220 216 315 23 66 24 75 10 75 -5 0 -17 -17 -26 -37 -48 -108
-62 -131 -115 -197 -31 -39 -76 -89 -98 -111 -23 -21 -41 -43 -41 -47 0 -5
-10 -23 -22 -39 -21 -28 -24 -46 -29 -182 -4 -121 -10 -166 -28 -220 -21 -62
-24 -66 -37 -50 -13 16 -14 15 -12 -12 2 -31 -16 -75 -31 -75 -15 0 -19 500
-5 537 7 17 57 82 111 143 143 163 169 204 178 285 4 37 5 69 2 71 -3 3 -19
-38 -37 -90 -28 -85 -39 -104 -105 -178 -40 -46 -94 -103 -120 -128 -26 -25
-51 -55 -55 -66 -5 -12 -5 -125 0 -250 4 -126 5 -249 1 -274 l-6 -45 -21 27
c-22 28 -53 194 -74 398 -6 58 -15 121 -20 140 -15 53 -12 128 6 166 16 33
126 139 269 259 39 32 87 85 108 117 41 62 58 74 151 107 53 19 102 49 93 58
-2 2 -24 -8 -48 -21 -24 -13 -62 -29 -84 -36 -60 -19 -81 -36 -121 -98 -20
-32 -51 -68 -68 -82 -17 -14 -84 -72 -149 -128 -65 -57 -121 -102 -124 -99
-14 15 16 52 100 125 103 89 236 225 263 268 51 83 133 141 231 166 65 16 434
25 978 24 l450 -1 68 -35z m-6557 -37 c-2 -10 -7 -45 -10 -78 -13 -128 -62
-424 -82 -497 -9 -34 -17 -127 -21 -258 -6 -232 -4 -226 -89 -261 -54 -23 -69
-39 -36 -39 66 0 180 97 229 192 50 100 143 299 173 370 17 43 37 81 43 85 16
10 129 5 140 -6 15 -15 -31 -71 -59 -71 -13 0 -37 -12 -53 -27 -43 -40 -61
-159 -68 -432 -8 -280 8 -449 48 -543 26 -59 28 -71 20 -115 -18 -94 -50 -349
-61 -483 -6 -74 -12 -157 -15 -184 -6 -64 3 -81 134 -257 109 -148 121 -174
121 -260 0 -35 -199 -162 -310 -197 -118 -38 -257 -33 -360 14 -76 35 -111 64
-176 147 -32 40 -170 184 -308 320 l-251 248 1 73 c0 62 5 84 37 150 32 68 37
88 37 152 0 40 -5 107 -11 148 l-11 75 115 223 c123 239 201 388 457 868 287
540 353 660 362 660 5 0 7 -8 4 -17z m2478 -45 c24 -28 94 -90 154 -137 194
-152 282 -231 288 -258 11 -41 -3 -170 -20 -195 -16 -22 -16 -21 -16 21 0 49
-9 60 -154 176 -192 153 -365 371 -342 430 11 29 45 15 90 -37z m-1809 -4469
c33 -6 95 -21 138 -34 86 -26 97 -25 145 17 53 46 153 31 138 -21 -3 -9 -28
-117 -57 -241 -28 -124 -56 -233 -61 -242 -7 -14 -21 -18 -61 -18 -29 0 -58 5
-65 12 -7 7 -12 40 -12 78 0 128 -52 230 -140 278 -60 32 -160 29 -212 -7 -98
-67 -116 -198 -40 -293 15 -19 96 -99 180 -178 229 -213 289 -311 299 -482 19
-309 -167 -506 -502 -534 -97 -8 -223 12 -355 56 -50 16 -95 30 -101 30 -5 0
-27 -18 -49 -40 -31 -32 -46 -40 -75 -40 -44 0 -75 15 -75 36 0 32 121 538
131 551 14 17 103 17 117 1 6 -7 13 -47 17 -88 12 -140 46 -232 102 -282 39
-36 115 -61 183 -61 76 0 121 17 168 64 70 70 93 154 67 246 -16 56 -25 67
-224 263 -262 258 -292 307 -292 475 0 139 40 233 139 327 131 125 282 164
497 127z"/>
<path d="M12728 12103 c12 -2 30 -2 40 0 9 3 -1 5 -23 4 -22 0 -30 -2 -17 -4z"/>
<path d="M7370 11665 c-20 -51 -52 -203 -70 -329 -22 -149 -25 -199 -10 -176
5 8 10 35 10 60 0 84 55 373 86 454 3 9 3 16 0 16 -4 0 -11 -11 -16 -25z"/>
<path d="M6860 11360 c0 -32 85 -364 118 -460 133 -389 355 -776 616 -1072 43
-49 76 -72 76 -53 0 3 -32 42 -71 88 -328 379 -564 847 -691 1369 -18 76 -36
138 -40 138 -5 0 -8 -4 -8 -10z"/>
<path d="M11577 10753 c-12 -21 -59 -228 -81 -365 -27 -157 -69 -538 -61 -546
8 -8 12 17 34 199 24 200 70 456 106 603 14 54 25 103 25 107 0 11 -17 12 -23
2z"/>
<path d="M7150 10336 c0 -20 192 -404 278 -556 104 -184 200 -315 218 -297 4
4 -11 30 -34 59 -80 105 -175 268 -308 533 -75 149 -140 272 -145 273 -5 2 -9
-3 -9 -12z"/>
<path d="M8751 9922 c39 -161 64 -380 73 -627 2 -55 2 -5 0 110 -2 126 -9 250
-19 310 -19 123 -54 273 -64 280 -5 2 0 -30 10 -73z"/>
<path d="M8070 9802 c0 -17 157 -329 170 -337 5 -3 10 -5 10 -3 -1 13 -179
350 -180 340z"/>
<path d="M9080 8612 c0 -15 51 -134 92 -216 27 -53 81 -129 166 -230 305 -365
549 -640 690 -780 l81 -79 -127 -77 c-212 -127 -257 -160 -221 -160 6 0 68 35
137 79 162 100 239 141 266 141 12 0 45 -7 74 -14 44 -12 52 -12 52 0 0 14
-87 44 -130 44 -48 0 -318 288 -749 800 -175 208 -215 269 -288 448 -12 28
-27 52 -32 52 -6 0 -11 -4 -11 -8z"/>
<path d="M13783 8287 c3 -7 27 -47 53 -88 27 -41 57 -92 66 -114 9 -22 35 -85
58 -140 66 -158 172 -325 206 -325 9 0 -2 20 -29 53 -48 59 -126 208 -177 336
-30 76 -160 291 -176 291 -3 0 -4 -6 -1 -13z"/>
<path d="M9805 10949 c2 -34 10 -44 43 -54 30 -9 29 9 -4 52 -31 41 -42 42
-39 2z"/>
<path d="M10093 10938 c-26 -29 -46 -68 -35 -68 18 0 62 50 62 70 0 25 -2 25
-27 -2z"/>
<path d="M9808 10690 c-59 -3 -111 -10 -115 -14 -4 -5 37 -6 92 -2 55 3 171 6
258 6 98 0 157 4 157 10 0 11 -212 11 -392 0z"/>
<path d="M6541 4685 c-125 -35 -227 -119 -283 -232 -31 -64 -33 -73 -33 -178
0 -170 8 -183 265 -435 224 -221 249 -254 257 -350 10 -110 -57 -228 -162
-283 -62 -33 -191 -30 -267 7 -61 29 -106 73 -137 134 -23 46 -51 174 -51 237
0 43 -1 45 -29 45 l-29 0 -32 -137 c-18 -76 -45 -191 -60 -255 l-27 -118 29 0
c21 0 39 10 62 35 40 42 59 44 163 10 42 -14 104 -33 138 -42 79 -21 248 -21
338 0 232 57 360 232 344 472 -10 161 -60 238 -301 469 -199 190 -226 229
-226 321 0 135 102 238 235 238 107 1 197 -59 250 -163 26 -51 50 -179 40
-212 -5 -15 -1 -18 27 -18 l34 0 52 223 c29 122 52 228 52 235 0 22 -42 13
-76 -18 -19 -16 -45 -32 -58 -36 -14 -3 -69 8 -132 26 -134 39 -295 49 -383
25z"/>
<path d="M10397 3978 c-322 -398 -601 -733 -619 -745 -18 -12 -51 -26 -73 -31
-34 -6 -41 -12 -43 -35 l-3 -27 235 0 236 0 0 29 c0 27 -3 29 -51 35 -53 7
-99 40 -99 71 0 31 41 96 140 220 l100 125 234 0 c129 0 237 -4 240 -8 11 -19
-16 -298 -32 -332 -20 -41 -63 -68 -124 -78 -37 -6 -43 -11 -46 -35 l-3 -27
590 0 591 0 0 23 c0 20 -8 25 -60 35 -81 17 -104 46 -97 122 4 46 261 1027
271 1038 4 3 5 0 89 -718 l62 -525 35 0 35 0 410 641 c225 353 411 641 413
639 4 -4 -246 -953 -274 -1038 -31 -94 -71 -139 -137 -156 -25 -6 -55 -11 -66
-11 -16 0 -21 -6 -21 -25 l0 -25 355 0 355 0 0 23 c0 21 -7 25 -55 36 -68 15
-105 54 -105 110 0 59 285 1115 320 1188 36 72 74 101 149 110 45 5 51 8 51
29 l0 24 -257 0 -258 -1 -345 -535 c-256 -396 -347 -530 -352 -517 -6 16 -128
1009 -128 1041 0 9 -59 12 -260 12 l-260 0 0 -24 c0 -21 6 -25 52 -31 38 -6
60 -15 81 -37 28 -28 29 -32 24 -96 -7 -85 -278 -1097 -313 -1169 -44 -90
-107 -121 -213 -104 -73 12 -113 32 -140 69 -43 61 -44 81 -17 732 33 771 33
700 -2 700 -25 0 -90 -76 -615 -722z m329 215 c-3 -27 -8 -120 -11 -208 -3
-88 -8 -186 -11 -217 l-6 -58 -200 0 c-111 0 -198 4 -196 9 6 18 413 520 421
520 5 1 6 -20 3 -46z"/>
<path d="M7480 4636 c0 -21 6 -25 43 -31 92 -16 125 -57 113 -140 -4 -25 -70
-281 -147 -568 -149 -558 -175 -633 -238 -674 -18 -13 -55 -26 -82 -29 -43 -6
-49 -9 -49 -30 l0 -24 646 2 647 3 63 220 c35 121 64 223 64 228 0 4 -11 7
-24 7 -19 0 -36 -17 -79 -77 -105 -150 -221 -239 -363 -278 -80 -22 -332 -32
-374 -15 -55 23 -53 35 59 448 34 123 61 225 61 228 0 11 153 2 200 -12 100
-30 140 -94 140 -226 0 -64 1 -68 23 -68 21 0 27 18 100 308 43 169 78 310 77
315 0 4 -10 7 -23 7 -16 0 -29 -12 -47 -46 -38 -73 -103 -139 -162 -164 -42
-19 -76 -24 -171 -28 -97 -4 -116 -2 -112 9 2 8 34 126 70 263 37 137 73 262
81 278 22 43 54 51 189 45 92 -3 134 -10 179 -27 112 -43 176 -139 176 -266
l0 -54 33 0 32 0 41 210 40 210 -603 0 -603 0 0 -24z"/>
<path d="M8790 4635 c0 -16 7 -28 18 -31 53 -16 83 -37 98 -66 31 -59 224
-652 224 -687 0 -52 -131 -540 -155 -575 -25 -39 -97 -76 -147 -76 -36 0 -38
-2 -38 -30 l0 -30 350 0 350 0 0 30 c0 28 -2 30 -40 30 -84 0 -130 38 -130
107 0 14 30 141 67 282 l67 256 235 325 c265 364 308 414 375 432 38 10 46 16
46 35 l0 23 -245 0 -245 0 0 -25 c0 -22 4 -25 36 -25 115 0 152 -85 90 -203
-26 -47 -312 -440 -324 -445 -12 -4 -165 508 -166 555 -1 57 24 82 92 90 46 5
52 8 52 29 l0 24 -305 0 -305 0 0 -25z"/>
<path d="M8048 4540 c-10 -6 -25 -37 -34 -68 -9 -31 -19 -63 -21 -69 -4 -9 8
-13 38 -14 39 0 41 -2 22 -11 -29 -14 -40 -52 -47 -158 -3 -47 -12 -109 -20
-138 l-15 -54 37 7 c52 9 105 24 119 33 17 11 85 252 79 278 -3 11 -16 26 -28
32 -18 8 14 11 140 11 89 1 162 3 162 6 0 4 -7 19 -15 35 -19 37 -69 75 -126
96 -54 20 -266 30 -291 14z"/>
<path d="M11192 4243 c-8 -3 -40 -39 -73 -80 l-59 -74 0 -89 c0 -66 5 -99 20
-131 32 -72 28 -187 -12 -303 l-32 -93 24 -98 c27 -110 37 -122 119 -132 l51
-6 0 64 c0 35 7 245 17 466 18 425 15 476 -22 480 -11 1 -26 -1 -33 -4z"/>
<path d="M9543 3893 l-49 -68 13 -55 c24 -98 -3 -293 -73 -512 -4 -14 3 -17
43 -20 44 -3 48 -5 57 -35 5 -20 5 -46 0 -65 -9 -32 -11 -33 -79 -38 l-70 -5
23 -22 c29 -30 109 -32 143 -4 21 17 24 31 31 117 7 107 45 267 109 457 21 64
39 124 39 133 0 8 -20 36 -43 62 -24 26 -55 64 -69 85 l-26 38 -49 -68z"/>
<path d="M7925 3856 c-2 -6 -11 -37 -19 -68 -19 -68 -28 -75 -54 -47 -11 11
-22 16 -25 12 -8 -12 -83 -285 -108 -392 -17 -68 -18 -85 -7 -92 16 -11 209
-12 224 -1 6 4 14 35 17 68 6 66 48 221 78 292 10 24 32 63 49 87 30 43 30 46
15 75 -18 35 -57 57 -121 69 -32 6 -47 5 -49 -3z"/>
<path d="M11066 3085 c10 -24 38 -35 91 -35 47 0 93 20 93 41 0 5 -42 9 -95 9
-81 0 -94 -2 -89 -15z"/>
<path d="M20015 190 c-37 -15 -86 -75 -92 -113 -8 -51 8 -67 68 -67 l49 0 0
95 c0 52 -1 95 -2 94 -2 0 -12 -4 -23 -9z"/>
</g>
</svg>
